<svg width="20" height="20" viewBox="0 0 20 20" fill="none" xmlns="http://www.w3.org/2000/svg">
<g clip-path="url(#clip0_1_3983)">
<path d="M15.8333 2.5H4.16667C3.25 2.5 2.5 3.25 2.5 4.16667V15.8333C2.5 16.75 3.25 17.5 4.16667 17.5H15.8333C16.75 17.5 17.5 16.75 17.5 15.8333V4.16667C17.5 3.25 16.75 2.5 15.8333 2.5ZM8.925 13.575C8.6 13.9 8.075 13.9 7.75 13.575L4.75833 10.5833C4.43333 10.2583 4.43333 9.73333 4.75833 9.40833C5.08333 9.08333 5.60833 9.08333 5.93333 9.40833L8.33333 11.8083L14.0667 6.075C14.3917 5.75 14.9167 5.75 15.2417 6.075C15.5667 6.4 15.5667 6.925 15.2417 7.25L8.925 13.575Z" fill="#1A1E23"/>
<rect x="3" y="3" width="14" height="14" rx="3" fill="#1A1E23"/>
<path d="M13.6749 6.33076C13.4474 6.10326 13.0799 6.10326 12.8524 6.33076L9.99992 9.17742L7.14742 6.32492C6.91992 6.09742 6.55242 6.09742 6.32492 6.32492C6.09742 6.55242 6.09742 6.91992 6.32492 7.14742L9.17742 9.99992L6.32492 12.8524C6.09742 13.0799 6.09742 13.4474 6.32492 13.6749C6.55242 13.9024 6.91992 13.9024 7.14742 13.6749L9.99992 10.8224L12.8524 13.6749C13.0799 13.9024 13.4474 13.9024 13.6749 13.6749C13.9024 13.4474 13.9024 13.0799 13.6749 12.8524L10.8224 9.99992L13.6749 7.14742C13.8966 6.92576 13.8966 6.55242 13.6749 6.33076Z" fill="white"/>
</g>
<defs>
<clipPath id="clip0_1_3983">
<rect width="20" height="20" fill="white"/>
</clipPath>
</defs>
</svg>
