<svg width="32" height="32" viewBox="0 0 32 32" fill="none" xmlns="http://www.w3.org/2000/svg">
<circle cx="16" cy="16" r="16" fill="white" fill-opacity="0.5"/>
<g clip-path="url(#clip0_1_2940)">
<path d="M22.2997 9.70973C21.9097 9.31973 21.2797 9.31973 20.8897 9.70973L15.9997 14.5897L11.1097 9.69973C10.7197 9.30973 10.0897 9.30973 9.69973 9.69973C9.30973 10.0897 9.30973 10.7197 9.69973 11.1097L14.5897 15.9997L9.69973 20.8897C9.30973 21.2797 9.30973 21.9097 9.69973 22.2997C10.0897 22.6897 10.7197 22.6897 11.1097 22.2997L15.9997 17.4097L20.8897 22.2997C21.2797 22.6897 21.9097 22.6897 22.2997 22.2997C22.6897 21.9097 22.6897 21.2797 22.2997 20.8897L17.4097 15.9997L22.2997 11.1097C22.6797 10.7297 22.6797 10.0897 22.2997 9.70973Z" fill="white"/>
</g>
<defs>
<clipPath id="clip0_1_2940">
<rect width="24" height="24" fill="white" transform="translate(4 4)"/>
</clipPath>
</defs>
</svg>
