<svg width="674" height="68" viewBox="0 0 674 68" fill="none" xmlns="http://www.w3.org/2000/svg">
<path d="M27.736 66H0.76V1.96799H27.64C47.8 1.96799 62.296 14.064 62.296 33.936C62.296 53.808 47.8 66 27.736 66ZM17.272 16.368V51.6H27.64C38.872 51.6 45.4 43.44 45.4 33.936C45.4 24.048 39.448 16.368 27.736 16.368H17.272ZM87.022 66H70.51V1.96799H87.022V66ZM95.2773 34.032C95.2773 13.68 110.829 0.911997 129.933 0.911997C143.949 0.911997 152.589 7.824 157.293 15.792L143.469 23.088C140.877 18.864 135.981 15.504 129.933 15.504C119.469 15.504 112.077 23.568 112.077 34.032C112.077 44.496 119.469 52.56 129.933 52.56C134.925 52.56 139.437 50.832 142.029 48.72V43.344H127.341V29.616H158.253V54.672C151.341 62.256 142.029 67.152 129.933 67.152C110.829 67.152 95.2773 54.384 95.2773 34.032ZM184.428 66H167.916V1.96799H184.428V66ZM226.764 66H210.252V16.368H192.3V1.96799H244.62V16.368H226.764V66ZM308.781 66H290.829L287.565 56.304H260.973L257.709 66H239.756L263.853 1.96799H284.589L308.781 66ZM283.245 42.384L274.221 16.368L265.293 42.384H283.245ZM355.75 66H313.51V1.96799H330.022V51.6H355.75V66ZM415.861 66H388.885V1.96799H415.765C435.925 1.96799 450.421 14.064 450.421 33.936C450.421 53.808 435.925 66 415.861 66ZM405.397 16.368V51.6H415.765C426.997 51.6 433.525 43.44 433.525 33.936C433.525 24.048 427.573 16.368 415.861 16.368H405.397ZM475.147 66H458.635V1.96799H475.147V66ZM548.874 66H530.922L527.658 56.304H501.066L497.802 66H479.85L503.946 1.96799H524.682L548.874 66ZM523.338 42.384L514.314 16.368L505.386 42.384H523.338ZM608.228 66H589.316L578.564 44.304H570.116V66H553.604V1.96799H585.668C599.876 1.96799 607.94 11.376 607.94 23.28C607.94 34.416 601.124 40.368 595.172 42.48L608.228 66ZM591.14 23.088C591.14 18.672 587.492 15.888 583.172 15.888H570.116V30.288H583.172C587.492 30.288 591.14 27.504 591.14 23.088ZM649.275 66H632.763V40.176L608.475 1.96799H627.099L641.019 25.584L654.747 1.96799H673.467L649.275 40.176V66Z" fill="#1A1E23"/>
</svg>
