<svg width="679" height="117" viewBox="0 0 679 117" fill="none" xmlns="http://www.w3.org/2000/svg">
<path d="M32.736 88H5.76V23.968H32.64C52.8 23.968 67.296 36.064 67.296 55.936C67.296 75.808 52.8 88 32.736 88ZM22.272 38.368V73.6H32.64C43.872 73.6 50.4 65.44 50.4 55.936C50.4 46.048 44.448 38.368 32.736 38.368H22.272ZM92.022 88H75.51V23.968H92.022V88ZM100.277 56.032C100.277 35.68 115.829 22.912 134.933 22.912C148.949 22.912 157.589 29.824 162.293 37.792L148.469 45.088C145.877 40.864 140.981 37.504 134.933 37.504C124.469 37.504 117.077 45.568 117.077 56.032C117.077 66.496 124.469 74.56 134.933 74.56C139.925 74.56 144.437 72.832 147.029 70.72V65.344H132.341V51.616H163.253V76.672C156.341 84.256 147.029 89.152 134.933 89.152C115.829 89.152 100.277 76.384 100.277 56.032ZM189.428 88H172.916V23.968H189.428V88ZM231.764 88H215.252V38.368H197.3V23.968H249.62V38.368H231.764V88ZM313.781 88H295.829L292.565 78.304H265.973L262.709 88H244.756L268.853 23.968H289.589L313.781 88ZM288.245 64.384L279.221 38.368L270.293 64.384H288.245ZM360.75 88H318.51V23.968H335.022V73.6H360.75V88ZM420.861 88H393.885V23.968H420.765C440.925 23.968 455.421 36.064 455.421 55.936C455.421 75.808 440.925 88 420.861 88ZM410.397 38.368V73.6H420.765C431.997 73.6 438.525 65.44 438.525 55.936C438.525 46.048 432.573 38.368 420.861 38.368H410.397ZM480.147 88H463.635V23.968H480.147V88ZM553.874 88H535.922L532.658 78.304H506.066L502.802 88H484.85L508.946 23.968H529.682L553.874 88ZM528.338 64.384L519.314 38.368L510.386 64.384H528.338ZM613.228 88H594.316L583.564 66.304H575.116V88H558.604V23.968H590.668C604.876 23.968 612.94 33.376 612.94 45.28C612.94 56.416 606.124 62.368 600.172 64.48L613.228 88ZM596.14 45.088C596.14 40.672 592.492 37.888 588.172 37.888H575.116V52.288H588.172C592.492 52.288 596.14 49.504 596.14 45.088ZM654.275 88H637.763V62.176L613.475 23.968H632.099L646.019 47.584L659.747 23.968H678.467L654.275 62.176V88Z" fill="#101011"/>
</svg>
